M48
; DRILL file {KiCad (6.0.8)} date Sun Oct 23 13:20:49 2022
; FORMAT={-:-/ absolute / inch / decimal}
; #@! TF.CreationDate,2022-10-23T13:20:49+08:00
; #@! TF.GenerationSoftware,Kicad,Pcbnew,(6.0.8)
; #@! TF.FileFunction,Plated,1,2,PTH
FMAT,2
INCH
; #@! TA.AperFunction,Plated,PTH,ViaDrill
T1C0.0157
%
G90
G05
T1
X4.0157Y-3.3465
X4.0157Y-5.2362
X4.1339Y-3.3465
X4.1339Y-5.2362
X4.2411Y-3.6949
X4.252Y-3.3465
X4.252Y-5.2362
X4.3996Y-3.6969
X4.438Y-4.3406
X4.5965Y-4.3406
X4.6634Y-4.8051
X4.8228Y-4.8031
X5.4301Y-3.8583
X5.5906Y-3.8583
X6.6142Y-3.8368
X6.7717Y-3.8386
X7.0453Y-4.1713
X7.0866Y-3.3465
X7.0866Y-5.2362
X7.2028Y-4.1713
X7.2047Y-3.3465
X7.2047Y-4.8425
X7.2047Y-4.9921
X7.2047Y-5.2362
X7.3228Y-3.3465
X7.3228Y-5.2362
T0
M30
