%TF.GenerationSoftware,KiCad,Pcbnew,(6.0.8)*%
%TF.CreationDate,2022-10-23T13:20:46+08:00*%
%TF.ProjectId,LrtraPCB,4c727472-6150-4434-922e-6b696361645f,rev?*%
%TF.SameCoordinates,Original*%
%TF.FileFunction,Paste,Bot*%
%TF.FilePolarity,Positive*%
%FSLAX46Y46*%
G04 Gerber Fmt 4.6, Leading zero omitted, Abs format (unit mm)*
G04 Created by KiCad (PCBNEW (6.0.8)) date 2022-10-23 13:20:46*
%MOMM*%
%LPD*%
G01*
G04 APERTURE LIST*
G04 Aperture macros list*
%AMRoundRect*
0 Rectangle with rounded corners*
0 $1 Rounding radius*
0 $2 $3 $4 $5 $6 $7 $8 $9 X,Y pos of 4 corners*
0 Add a 4 corners polygon primitive as box body*
4,1,4,$2,$3,$4,$5,$6,$7,$8,$9,$2,$3,0*
0 Add four circle primitives for the rounded corners*
1,1,$1+$1,$2,$3*
1,1,$1+$1,$4,$5*
1,1,$1+$1,$6,$7*
1,1,$1+$1,$8,$9*
0 Add four rect primitives between the rounded corners*
20,1,$1+$1,$2,$3,$4,$5,0*
20,1,$1+$1,$4,$5,$6,$7,0*
20,1,$1+$1,$6,$7,$8,$9,0*
20,1,$1+$1,$8,$9,$2,$3,0*%
G04 Aperture macros list end*
%ADD10RoundRect,0.250000X-0.337500X-0.475000X0.337500X-0.475000X0.337500X0.475000X-0.337500X0.475000X0*%
%ADD11RoundRect,0.250000X-0.350000X-0.450000X0.350000X-0.450000X0.350000X0.450000X-0.350000X0.450000X0*%
%ADD12RoundRect,0.250000X0.350000X0.450000X-0.350000X0.450000X-0.350000X-0.450000X0.350000X-0.450000X0*%
%ADD13RoundRect,0.250000X0.337500X0.475000X-0.337500X0.475000X-0.337500X-0.475000X0.337500X-0.475000X0*%
%ADD14R,1.250000X0.900000*%
%ADD15R,0.930000X0.850000*%
%ADD16RoundRect,0.150000X0.825000X0.150000X-0.825000X0.150000X-0.825000X-0.150000X0.825000X-0.150000X0*%
%ADD17R,3.600000X2.600000*%
G04 APERTURE END LIST*
D10*
%TO.C,C4*%
X159712500Y-102500000D03*
X161787500Y-102500000D03*
%TD*%
D11*
%TO.C,R2*%
X126000000Y-98500000D03*
X128000000Y-98500000D03*
%TD*%
D10*
%TO.C,C1*%
X116462500Y-90018375D03*
X118537500Y-90018375D03*
%TD*%
D12*
%TO.C,R5*%
X166000000Y-100250000D03*
X164000000Y-100250000D03*
%TD*%
D13*
%TO.C,C3*%
X130787500Y-104000000D03*
X128712500Y-104000000D03*
%TD*%
D14*
%TO.C,SW1*%
X184925000Y-124250000D03*
X184925000Y-122750000D03*
X184925000Y-119750000D03*
D15*
X185865000Y-118175000D03*
X188135000Y-125825000D03*
X188135000Y-118175000D03*
X185865000Y-125825000D03*
%TD*%
D13*
%TO.C,C6*%
X118537500Y-95000000D03*
X116462500Y-95000000D03*
%TD*%
D16*
%TO.C,U1*%
X127725000Y-89863375D03*
X127725000Y-91133375D03*
X127725000Y-92403375D03*
X127725000Y-93673375D03*
X122775000Y-93673375D03*
X122775000Y-92403375D03*
X122775000Y-91133375D03*
X122775000Y-89863375D03*
%TD*%
D12*
%TO.C,R8*%
X144000000Y-100250000D03*
X142000000Y-100250000D03*
%TD*%
D13*
%TO.C,C5*%
X148537500Y-102500000D03*
X146462500Y-102500000D03*
%TD*%
D11*
%TO.C,R3*%
X124500000Y-106250000D03*
X126500000Y-106250000D03*
%TD*%
D17*
%TO.C,BT1*%
X112500000Y-102850000D03*
X112500000Y-132150000D03*
%TD*%
D11*
%TO.C,R6*%
X164000000Y-102500000D03*
X166000000Y-102500000D03*
%TD*%
%TO.C,R7*%
X142000000Y-102500000D03*
X144000000Y-102500000D03*
%TD*%
D13*
%TO.C,C2*%
X118537500Y-92500000D03*
X116462500Y-92500000D03*
%TD*%
D12*
%TO.C,R4*%
X126500000Y-104000000D03*
X124500000Y-104000000D03*
%TD*%
%TO.C,R1*%
X128000000Y-96000000D03*
X126000000Y-96000000D03*
%TD*%
M02*
