%TF.GenerationSoftware,KiCad,Pcbnew,(6.0.8)*%
%TF.CreationDate,2022-10-23T13:20:45+08:00*%
%TF.ProjectId,LrtraPCB,4c727472-6150-4434-922e-6b696361645f,rev?*%
%TF.SameCoordinates,Original*%
%TF.FileFunction,Copper,L1,Top*%
%TF.FilePolarity,Positive*%
%FSLAX46Y46*%
G04 Gerber Fmt 4.6, Leading zero omitted, Abs format (unit mm)*
G04 Created by KiCad (PCBNEW (6.0.8)) date 2022-10-23 13:20:45*
%MOMM*%
%LPD*%
G01*
G04 APERTURE LIST*
G04 Aperture macros list*
%AMRoundRect*
0 Rectangle with rounded corners*
0 $1 Rounding radius*
0 $2 $3 $4 $5 $6 $7 $8 $9 X,Y pos of 4 corners*
0 Add a 4 corners polygon primitive as box body*
4,1,4,$2,$3,$4,$5,$6,$7,$8,$9,$2,$3,0*
0 Add four circle primitives for the rounded corners*
1,1,$1+$1,$2,$3*
1,1,$1+$1,$4,$5*
1,1,$1+$1,$6,$7*
1,1,$1+$1,$8,$9*
0 Add four rect primitives between the rounded corners*
20,1,$1+$1,$2,$3,$4,$5,0*
20,1,$1+$1,$4,$5,$6,$7,0*
20,1,$1+$1,$6,$7,$8,$9,0*
20,1,$1+$1,$8,$9,$2,$3,0*%
G04 Aperture macros list end*
%TA.AperFunction,SMDPad,CuDef*%
%ADD10RoundRect,0.250000X-0.325000X-0.450000X0.325000X-0.450000X0.325000X0.450000X-0.325000X0.450000X0*%
%TD*%
%TA.AperFunction,SMDPad,CuDef*%
%ADD11RoundRect,0.250000X0.325000X0.450000X-0.325000X0.450000X-0.325000X-0.450000X0.325000X-0.450000X0*%
%TD*%
%TA.AperFunction,SMDPad,CuDef*%
%ADD12R,1.700000X1.000000*%
%TD*%
%TA.AperFunction,ViaPad*%
%ADD13C,0.800000*%
%TD*%
%TA.AperFunction,Conductor*%
%ADD14C,0.250000*%
%TD*%
%TA.AperFunction,Conductor*%
%ADD15C,0.500000*%
%TD*%
G04 APERTURE END LIST*
%TO.C,G\u002A\u002A\u002A*%
G36*
X135040168Y-113178909D02*
G01*
X135085859Y-113271874D01*
X135074454Y-113372897D01*
X135015883Y-113434294D01*
X134920065Y-113456625D01*
X134831684Y-113433904D01*
X134807044Y-113408711D01*
X134794557Y-113332418D01*
X134805260Y-113252472D01*
X134857410Y-113164143D01*
X134938606Y-113143410D01*
X135040168Y-113178909D01*
G37*
G36*
X134278784Y-113620963D02*
G01*
X134300946Y-113720909D01*
X134323035Y-113865126D01*
X134320550Y-113927292D01*
X134294289Y-113905883D01*
X134251540Y-113815238D01*
X134222011Y-113696505D01*
X134229806Y-113601768D01*
X134254797Y-113573906D01*
X134278784Y-113620963D01*
G37*
G36*
X133390362Y-133809751D02*
G01*
X133594362Y-133725290D01*
X133825483Y-133646598D01*
X134103871Y-133566123D01*
X134449677Y-133476314D01*
X134451494Y-133475857D01*
X134685823Y-133414543D01*
X134897743Y-133354524D01*
X135067802Y-133301638D01*
X135176550Y-133261719D01*
X135194937Y-133252798D01*
X135315089Y-133203860D01*
X135412242Y-133186643D01*
X135504770Y-133158175D01*
X135621438Y-133086505D01*
X135667233Y-133049522D01*
X135766659Y-132968497D01*
X135870435Y-132901271D01*
X135996320Y-132839861D01*
X136162075Y-132776282D01*
X136385458Y-132702551D01*
X136558259Y-132648980D01*
X136800937Y-132571519D01*
X136962800Y-132508801D01*
X137049632Y-132453844D01*
X137067213Y-132399668D01*
X137021327Y-132339291D01*
X136917754Y-132265732D01*
X136890000Y-132248438D01*
X136757221Y-132145840D01*
X136625152Y-131998681D01*
X136489531Y-131799543D01*
X136346096Y-131541010D01*
X136190587Y-131215661D01*
X136018743Y-130816079D01*
X135903228Y-130530580D01*
X135802014Y-130278845D01*
X135709640Y-130054943D01*
X135631897Y-129872448D01*
X135574576Y-129744932D01*
X135543468Y-129685968D01*
X135542323Y-129684657D01*
X135507399Y-129607898D01*
X135500491Y-129550738D01*
X135485014Y-129457400D01*
X135445545Y-129320224D01*
X135415844Y-129236028D01*
X135331232Y-129012830D01*
X134706620Y-128986792D01*
X134548813Y-128508774D01*
X134475415Y-128274883D01*
X134405824Y-128032971D01*
X134349911Y-127818299D01*
X134326564Y-127714934D01*
X134268251Y-127467497D01*
X134213197Y-127304992D01*
X134163868Y-127227899D01*
X134122731Y-127236703D01*
X134092251Y-127331884D01*
X134074895Y-127513925D01*
X134071808Y-127665113D01*
X134067323Y-127868512D01*
X134055580Y-128056306D01*
X134038777Y-128197426D01*
X134031706Y-128231634D01*
X134004389Y-128354146D01*
X133970320Y-128528227D01*
X133936649Y-128717257D01*
X133935101Y-128726465D01*
X133878347Y-129065056D01*
X133617011Y-129119034D01*
X133471171Y-129144144D01*
X133360585Y-129153994D01*
X133316730Y-129148942D01*
X133282348Y-129084599D01*
X133247085Y-128937435D01*
X133211869Y-128713890D01*
X133177632Y-128420402D01*
X133145300Y-128063413D01*
X133129132Y-127848919D01*
X133108095Y-127432609D01*
X133101443Y-126972811D01*
X133109286Y-126456889D01*
X133113303Y-126352263D01*
X136082136Y-126352263D01*
X136086508Y-126514335D01*
X136110020Y-126740420D01*
X136153260Y-127035881D01*
X136216816Y-127406085D01*
X136301278Y-127856396D01*
X136322147Y-127963796D01*
X136358319Y-128152147D01*
X136403585Y-128392409D01*
X136451202Y-128648629D01*
X136481180Y-128811951D01*
X136522131Y-129029610D01*
X136561545Y-129227121D01*
X136594547Y-129380728D01*
X136613974Y-129459227D01*
X136639576Y-129555922D01*
X136679221Y-129716280D01*
X136727212Y-129916896D01*
X136771449Y-130106503D01*
X136820292Y-130314513D01*
X136864159Y-130494230D01*
X136898046Y-130625595D01*
X136916229Y-130686819D01*
X136942847Y-130773429D01*
X136947211Y-130798418D01*
X136971177Y-130870276D01*
X137002080Y-130932337D01*
X137034365Y-131008257D01*
X137085442Y-131149713D01*
X137148391Y-131336744D01*
X137216291Y-131549389D01*
X137218748Y-131557294D01*
X137310573Y-131848560D01*
X137385221Y-132062987D01*
X137451227Y-132209232D01*
X137517127Y-132295951D01*
X137591457Y-132331801D01*
X137682754Y-132325440D01*
X137799552Y-132285525D01*
X137896211Y-132244369D01*
X138061893Y-132178904D01*
X138261419Y-132109425D01*
X138395196Y-132067746D01*
X138582959Y-131998592D01*
X138730715Y-131916615D01*
X138783662Y-131871708D01*
X138871903Y-131794502D01*
X138945921Y-131758512D01*
X138951056Y-131758172D01*
X139009565Y-131741483D01*
X139073521Y-131684343D01*
X139150583Y-131576143D01*
X139248407Y-131406273D01*
X139362244Y-131188535D01*
X139452333Y-131015265D01*
X139529227Y-130873998D01*
X139583132Y-130782349D01*
X139602200Y-130756981D01*
X139628004Y-130709733D01*
X139674793Y-130596186D01*
X139735305Y-130434736D01*
X139786021Y-130291273D01*
X139940464Y-129843722D01*
X140206266Y-129807713D01*
X140472068Y-129771705D01*
X140525489Y-129454099D01*
X140551755Y-129268383D01*
X140566691Y-129134935D01*
X144837183Y-129134935D01*
X144839417Y-129214248D01*
X144852549Y-129592539D01*
X145089461Y-129630134D01*
X145240158Y-129662657D01*
X145324968Y-129707284D01*
X145364466Y-129767920D01*
X145451362Y-129975238D01*
X145567013Y-130221042D01*
X145701203Y-130486441D01*
X145843714Y-130752547D01*
X145984329Y-131000469D01*
X146112832Y-131211317D01*
X146219004Y-131366202D01*
X146249610Y-131404410D01*
X146302790Y-131456542D01*
X146352580Y-131455225D01*
X146433879Y-131401808D01*
X146517829Y-131307142D01*
X146607772Y-131149873D01*
X146667195Y-131013711D01*
X146755903Y-130773265D01*
X146840665Y-130521634D01*
X146917195Y-130274215D01*
X146981209Y-130046408D01*
X147028422Y-129853609D01*
X147054551Y-129711218D01*
X147055309Y-129634631D01*
X147052465Y-129629078D01*
X146988578Y-129592590D01*
X146861585Y-129549032D01*
X146696553Y-129505351D01*
X146518549Y-129468493D01*
X146414939Y-129452411D01*
X146279658Y-129433745D01*
X146090785Y-129406496D01*
X145882964Y-129375691D01*
X145801143Y-129363325D01*
X145715764Y-129345490D01*
X145662151Y-129313038D01*
X145637829Y-129250956D01*
X145640328Y-129144234D01*
X145667176Y-128977861D01*
X145705907Y-128785032D01*
X145740285Y-128554706D01*
X145752632Y-128319831D01*
X145744816Y-128097010D01*
X145718708Y-127902849D01*
X145676177Y-127753953D01*
X145619094Y-127666929D01*
X145578251Y-127651318D01*
X145490920Y-127678167D01*
X145381982Y-127744491D01*
X145278508Y-127828955D01*
X145207566Y-127910224D01*
X145191935Y-127955789D01*
X145185845Y-128063131D01*
X145176465Y-128097715D01*
X145149640Y-128172228D01*
X145103280Y-128302338D01*
X145049209Y-128454833D01*
X144988881Y-128608093D01*
X144930115Y-128728988D01*
X144886420Y-128790474D01*
X144855036Y-128844179D01*
X144839128Y-128954449D01*
X144837183Y-129134935D01*
X140566691Y-129134935D01*
X140578309Y-129031140D01*
X140601164Y-128780020D01*
X140610792Y-128648450D01*
X140623410Y-128428602D01*
X140626267Y-128280483D01*
X140618096Y-128186946D01*
X140597632Y-128130844D01*
X140570346Y-128100380D01*
X140500484Y-128064191D01*
X140468504Y-128069868D01*
X140417398Y-128159947D01*
X140370764Y-128307742D01*
X140336461Y-128481754D01*
X140322351Y-128650482D01*
X140322320Y-128655712D01*
X140321678Y-128878910D01*
X139417693Y-128864206D01*
X139142565Y-128858337D01*
X138898673Y-128850479D01*
X138699795Y-128841295D01*
X138559709Y-128831447D01*
X138492194Y-128821597D01*
X138488505Y-128819566D01*
X138466277Y-128765475D01*
X138428447Y-128646577D01*
X138381729Y-128484509D01*
X138361454Y-128410193D01*
X138312525Y-128230900D01*
X138269892Y-128080065D01*
X138240493Y-127982033D01*
X138234274Y-127963796D01*
X138206076Y-127884409D01*
X138199506Y-127863357D01*
X138179204Y-127796397D01*
X138172955Y-127731446D01*
X138168956Y-127654191D01*
X138148745Y-127519035D01*
X138117565Y-127351178D01*
X138080660Y-127175823D01*
X138043270Y-127018168D01*
X138010640Y-126903417D01*
X137991572Y-126859545D01*
X137948966Y-126821579D01*
X137914597Y-126826002D01*
X137887325Y-126880021D01*
X137866009Y-126990843D01*
X137849509Y-127165673D01*
X137836685Y-127411721D01*
X137826395Y-127736191D01*
X137821793Y-127932483D01*
X137799473Y-128968190D01*
X137635472Y-128981842D01*
X137512015Y-129007602D01*
X137424840Y-129052792D01*
X137417967Y-129059961D01*
X137319923Y-129118667D01*
X137209846Y-129103653D01*
X137152605Y-129057961D01*
X137089815Y-129013731D01*
X137058050Y-129015838D01*
X137015245Y-128997495D01*
X136965715Y-128919687D01*
X136963577Y-128914907D01*
X136917526Y-128819260D01*
X136885267Y-128767311D01*
X136861382Y-128707065D01*
X136860983Y-128700352D01*
X136849990Y-128587998D01*
X136825648Y-128445154D01*
X136794790Y-128304213D01*
X136764250Y-128197569D01*
X136747295Y-128161346D01*
X136718416Y-128095971D01*
X136680078Y-127969909D01*
X136640412Y-127810003D01*
X136639123Y-127804228D01*
X136596497Y-127621738D01*
X136542205Y-127402847D01*
X136480593Y-127163577D01*
X136416008Y-126919951D01*
X136352796Y-126687991D01*
X136295304Y-126483720D01*
X136247877Y-126323160D01*
X136214862Y-126222333D01*
X136202894Y-126196099D01*
X136146702Y-126190139D01*
X136128453Y-126198692D01*
X136096314Y-126248837D01*
X136082136Y-126352263D01*
X133113303Y-126352263D01*
X133131736Y-125872211D01*
X133149480Y-125532157D01*
X133133914Y-125421077D01*
X133086812Y-125385344D01*
X133057081Y-125396084D01*
X133028475Y-125444863D01*
X133000018Y-125538021D01*
X132970734Y-125681900D01*
X132939645Y-125882842D01*
X132905775Y-126147188D01*
X132868148Y-126481279D01*
X132825786Y-126891456D01*
X132777714Y-127384061D01*
X132775636Y-127405800D01*
X132747164Y-127686447D01*
X132712525Y-128002167D01*
X132677097Y-128304842D01*
X132658386Y-128454833D01*
X132627026Y-128699039D01*
X132595193Y-128947996D01*
X132567333Y-129166882D01*
X132552940Y-129280668D01*
X132531364Y-129494037D01*
X132516265Y-129722693D01*
X132511627Y-129872144D01*
X132502399Y-130030826D01*
X132480670Y-130125639D01*
X132451398Y-130149482D01*
X132419543Y-130095258D01*
X132402473Y-130028383D01*
X132332337Y-129609210D01*
X132281922Y-129131932D01*
X132257366Y-128755216D01*
X132242544Y-128534165D01*
X132223308Y-128342539D01*
X132202039Y-128199619D01*
X132181119Y-128124687D01*
X132179106Y-128121634D01*
X132136229Y-128087246D01*
X132072113Y-128093279D01*
X131959599Y-128142549D01*
X131954859Y-128144889D01*
X131844123Y-128197661D01*
X131771753Y-128228417D01*
X131759997Y-128231634D01*
X131752206Y-128189950D01*
X131762584Y-128072019D01*
X131788948Y-127888523D01*
X131829118Y-127650146D01*
X131880912Y-127367569D01*
X131942150Y-127051476D01*
X132010650Y-126712548D01*
X132084231Y-126361469D01*
X132160712Y-126008920D01*
X132237912Y-125665585D01*
X132313649Y-125342146D01*
X132385743Y-125049285D01*
X132452012Y-124797686D01*
X132484597Y-124682777D01*
X132545788Y-124456733D01*
X132548626Y-124443451D01*
X137234706Y-124443451D01*
X137234882Y-124530687D01*
X137268385Y-124665013D01*
X137316635Y-124750318D01*
X137368491Y-124769548D01*
X137384024Y-124758964D01*
X137402959Y-124679488D01*
X137370685Y-124552640D01*
X137317118Y-124448030D01*
X137266461Y-124410773D01*
X137234706Y-124443451D01*
X132548626Y-124443451D01*
X132593749Y-124232245D01*
X132616945Y-124102460D01*
X132634071Y-124030018D01*
X132643585Y-124013181D01*
X132659691Y-123969224D01*
X132683751Y-123839273D01*
X132686919Y-123818353D01*
X136831310Y-123818353D01*
X136845376Y-123841438D01*
X136922282Y-123882203D01*
X137025831Y-123887193D01*
X137112949Y-123858391D01*
X137138620Y-123827935D01*
X137135457Y-123749738D01*
X137109357Y-123681746D01*
X137072882Y-123613593D01*
X150374352Y-123613593D01*
X150377439Y-123718832D01*
X150383512Y-123750074D01*
X150421570Y-123798887D01*
X150461040Y-123767924D01*
X150495493Y-123666346D01*
X150512153Y-123566784D01*
X150534215Y-123425855D01*
X150560430Y-123308826D01*
X150564962Y-123293942D01*
X150567918Y-123207915D01*
X150519000Y-123170132D01*
X150447555Y-123151974D01*
X150427557Y-123155103D01*
X150409014Y-123213334D01*
X150392435Y-123329833D01*
X150380115Y-123473590D01*
X150374352Y-123613593D01*
X137072882Y-123613593D01*
X137059642Y-123588853D01*
X136928291Y-123685965D01*
X136844035Y-123761594D01*
X136831310Y-123818353D01*
X132686919Y-123818353D01*
X132704734Y-123700703D01*
X132728989Y-123590652D01*
X132744271Y-123544464D01*
X132755652Y-123477535D01*
X132768684Y-123339341D01*
X132782005Y-123147845D01*
X132794255Y-122921012D01*
X132798196Y-122832844D01*
X132810383Y-122599644D01*
X132819461Y-122477108D01*
X133772215Y-122477108D01*
X133793100Y-122548034D01*
X133836616Y-122540160D01*
X133901176Y-122449916D01*
X133930050Y-122394991D01*
X133984470Y-122248288D01*
X133984953Y-122107179D01*
X133974136Y-122049804D01*
X133934628Y-121904032D01*
X133897999Y-121845555D01*
X133862813Y-121874910D01*
X133827631Y-121992636D01*
X133804698Y-122113149D01*
X133775552Y-122330956D01*
X133772215Y-122477108D01*
X132819461Y-122477108D01*
X132825377Y-122397243D01*
X132841561Y-122242929D01*
X132857319Y-122153992D01*
X132862863Y-122140928D01*
X132884135Y-122075809D01*
X132905665Y-121947596D01*
X132923212Y-121782363D01*
X132925027Y-121758875D01*
X132971060Y-121199917D01*
X133027087Y-120626531D01*
X133090046Y-120066429D01*
X133156876Y-119547321D01*
X133207160Y-119204980D01*
X133244455Y-118953495D01*
X133273652Y-118729836D01*
X133292957Y-118550132D01*
X133300579Y-118430511D01*
X133297702Y-118390305D01*
X133235736Y-118338199D01*
X133142942Y-118321617D01*
X132996196Y-118283164D01*
X132897173Y-118177613D01*
X132857844Y-118019676D01*
X132858827Y-117972509D01*
X132865173Y-117910944D01*
X133207913Y-117910944D01*
X133250347Y-118015664D01*
X133334302Y-118157199D01*
X133450369Y-118321053D01*
X133589137Y-118492734D01*
X133725800Y-118642102D01*
X133855333Y-118773972D01*
X133943719Y-118873453D01*
X133993064Y-118959671D01*
X134005472Y-119051754D01*
X133983047Y-119168828D01*
X133927896Y-119330020D01*
X133842122Y-119554458D01*
X133829761Y-119586837D01*
X133694829Y-119997581D01*
X133578382Y-120465709D01*
X133492334Y-120933040D01*
X133464840Y-121110233D01*
X133441151Y-121258959D01*
X133425556Y-121352387D01*
X133423573Y-121363197D01*
X133420726Y-121464128D01*
X133433400Y-121620349D01*
X133457111Y-121801017D01*
X133487376Y-121975292D01*
X133519712Y-122112330D01*
X133540653Y-122168617D01*
X133582669Y-122222948D01*
X133619906Y-122210444D01*
X133656451Y-122124423D01*
X133696394Y-121958203D01*
X133709438Y-121892794D01*
X133747676Y-121701319D01*
X133799701Y-121449042D01*
X133844881Y-121233926D01*
X144991601Y-121233926D01*
X145009112Y-121281416D01*
X145080240Y-121304263D01*
X145216593Y-121306245D01*
X145426142Y-121291458D01*
X146016568Y-121260302D01*
X146574003Y-121271280D01*
X147080726Y-121323597D01*
X147370693Y-121378516D01*
X147578297Y-121427890D01*
X147762523Y-121474547D01*
X147900439Y-121512514D01*
X147961185Y-121532283D01*
X148075234Y-121562617D01*
X148144084Y-121529874D01*
X148191625Y-121421501D01*
X148195170Y-121409375D01*
X148213438Y-121307869D01*
X148186220Y-121231241D01*
X148106558Y-121145497D01*
X148037615Y-121089527D01*
X147952072Y-121042615D01*
X147835125Y-121000141D01*
X147671968Y-120957487D01*
X147447797Y-120910035D01*
X147200909Y-120862976D01*
X146948383Y-120830905D01*
X146664045Y-120819296D01*
X146362672Y-120826152D01*
X146059045Y-120849479D01*
X145767944Y-120887279D01*
X145504147Y-120937558D01*
X145282434Y-120998319D01*
X145117584Y-121067567D01*
X145024378Y-121143305D01*
X145016100Y-121158016D01*
X144991601Y-121233926D01*
X133844881Y-121233926D01*
X133859922Y-121162314D01*
X133896216Y-120991990D01*
X136527241Y-120991990D01*
X136533625Y-121028126D01*
X136563351Y-121042426D01*
X136632274Y-121033056D01*
X136756252Y-120998179D01*
X136917839Y-120946759D01*
X137154669Y-120876254D01*
X137419407Y-120806869D01*
X137659689Y-120752215D01*
X137687874Y-120746615D01*
X138198586Y-120682584D01*
X138746848Y-120677175D01*
X139303541Y-120729626D01*
X139674341Y-120798473D01*
X139949415Y-120860457D01*
X140150023Y-120904310D01*
X140288731Y-120931812D01*
X140378105Y-120944743D01*
X140430709Y-120944884D01*
X140459110Y-120934016D01*
X140475873Y-120913918D01*
X140476943Y-120912198D01*
X140475442Y-120837637D01*
X140400744Y-120746602D01*
X140265447Y-120647312D01*
X140082152Y-120547987D01*
X139863457Y-120456846D01*
X139694754Y-120401943D01*
X139252195Y-120291194D01*
X138846209Y-120228760D01*
X138441205Y-120210386D01*
X138169195Y-120219598D01*
X137895241Y-120241113D01*
X137709163Y-120267796D01*
X137609697Y-120299850D01*
X137596299Y-120310850D01*
X137527020Y-120356948D01*
X137403997Y-120409499D01*
X137315857Y-120438546D01*
X137144403Y-120501827D01*
X136978253Y-120583367D01*
X136920207Y-120619185D01*
X136800162Y-120688971D01*
X136696757Y-120728683D01*
X136670968Y-120732162D01*
X136573122Y-120751993D01*
X136552018Y-120806244D01*
X136577734Y-120850814D01*
X136604555Y-120900807D01*
X136577347Y-120910721D01*
X136535404Y-120947667D01*
X136527241Y-120991990D01*
X133896216Y-120991990D01*
X133922747Y-120867486D01*
X133982587Y-120590907D01*
X134033850Y-120358927D01*
X134050417Y-120285765D01*
X134095521Y-120085513D01*
X134147046Y-119852248D01*
X134188591Y-119660808D01*
X134231771Y-119476224D01*
X134270462Y-119339868D01*
X134300928Y-119259829D01*
X134319435Y-119244195D01*
X134322249Y-119301056D01*
X134312250Y-119392970D01*
X134288267Y-119545823D01*
X134253818Y-119739349D01*
X134223049Y-119898085D01*
X134191195Y-120074338D01*
X134168907Y-120234374D01*
X134161336Y-120335345D01*
X134166921Y-120420818D01*
X134200865Y-120452146D01*
X134288953Y-120445168D01*
X134328735Y-120438163D01*
X134445160Y-120414272D01*
X134519952Y-120393652D01*
X134526987Y-120390490D01*
X134585966Y-120318429D01*
X134649992Y-120176081D01*
X134712999Y-119981742D01*
X134768916Y-119753708D01*
X134806014Y-119549209D01*
X134835961Y-119334255D01*
X134863730Y-119104028D01*
X134887803Y-118875547D01*
X134906666Y-118665831D01*
X134913778Y-118563893D01*
X153012262Y-118563893D01*
X153021617Y-118589455D01*
X153070972Y-118615985D01*
X153098653Y-118597234D01*
X153120252Y-118525738D01*
X153110897Y-118500176D01*
X153061542Y-118473646D01*
X153033860Y-118492397D01*
X153012262Y-118563893D01*
X134913778Y-118563893D01*
X134918800Y-118491900D01*
X134922690Y-118370771D01*
X134916820Y-118319466D01*
X134915637Y-118318831D01*
X134714754Y-118291909D01*
X134573204Y-118289136D01*
X134463332Y-118314561D01*
X134357484Y-118372234D01*
X134306135Y-118408090D01*
X134178885Y-118490933D01*
X134077980Y-118524767D01*
X133964247Y-118521226D01*
X133938317Y-118517347D01*
X133803342Y-118478719D01*
X133720613Y-118402302D01*
X133693795Y-118355203D01*
X133654177Y-118254565D01*
X133647385Y-118189291D01*
X133648782Y-118186398D01*
X133655774Y-118100142D01*
X133596627Y-118004734D01*
X133488663Y-117922727D01*
X133424844Y-117894835D01*
X133308194Y-117862430D01*
X133228270Y-117854159D01*
X133216410Y-117857530D01*
X133207913Y-117910944D01*
X132865173Y-117910944D01*
X132882659Y-117741301D01*
X133089983Y-117741301D01*
X133106316Y-117778044D01*
X133119742Y-117771060D01*
X133125085Y-117718083D01*
X133119742Y-117711541D01*
X133093204Y-117717668D01*
X133089983Y-117741301D01*
X132882659Y-117741301D01*
X132887141Y-117697814D01*
X132933284Y-117489436D01*
X133005770Y-117324903D01*
X133080093Y-117225776D01*
X134255901Y-117225776D01*
X134280375Y-117265144D01*
X134312411Y-117286291D01*
X134353546Y-117281500D01*
X134415315Y-117242415D01*
X134509254Y-117160680D01*
X134646898Y-117027939D01*
X134752300Y-116923290D01*
X134909704Y-116765320D01*
X135011273Y-116658203D01*
X135064535Y-116589896D01*
X135077019Y-116548357D01*
X135056254Y-116521545D01*
X135016570Y-116500622D01*
X134941189Y-116480443D01*
X134861231Y-116498194D01*
X134764452Y-116562054D01*
X134638611Y-116680202D01*
X134471466Y-116860817D01*
X134462654Y-116870682D01*
X134330852Y-117030354D01*
X134263619Y-117145073D01*
X134255901Y-117225776D01*
X133080093Y-117225776D01*
X133113110Y-117181740D01*
X133186509Y-117107348D01*
X133408000Y-116897472D01*
X133473168Y-116303833D01*
X133516497Y-115953417D01*
X133569829Y-115592722D01*
X133630531Y-115234119D01*
X133695971Y-114889979D01*
X133763517Y-114572671D01*
X133830536Y-114294567D01*
X133894397Y-114068037D01*
X133952467Y-113905450D01*
X134001788Y-113819503D01*
X134057048Y-113777838D01*
X134088580Y-113812420D01*
X134098141Y-113838560D01*
X134129619Y-113916323D01*
X134188786Y-114051011D01*
X134265113Y-114218865D01*
X134300660Y-114295478D01*
X134385728Y-114496453D01*
X134446083Y-114676738D01*
X134473142Y-114809999D01*
X134473814Y-114826701D01*
X134484393Y-114969939D01*
X134512306Y-115160566D01*
X134551816Y-115370383D01*
X134597187Y-115571193D01*
X134642682Y-115734796D01*
X134676254Y-115821793D01*
X134765653Y-115951805D01*
X134886890Y-116072668D01*
X135020600Y-116171381D01*
X135147420Y-116234939D01*
X135247985Y-116250339D01*
X135286894Y-116231841D01*
X135313915Y-116174858D01*
X135356926Y-116050589D01*
X135409680Y-115878213D01*
X135458203Y-115705666D01*
X135532361Y-115432885D01*
X135615030Y-115130965D01*
X135702387Y-114813653D01*
X135790609Y-114494696D01*
X135875871Y-114187843D01*
X135954351Y-113906840D01*
X136022224Y-113665437D01*
X136075668Y-113477380D01*
X136110859Y-113356417D01*
X136118713Y-113330707D01*
X136143054Y-113219414D01*
X136121312Y-113149388D01*
X136089582Y-113116198D01*
X135933288Y-112988503D01*
X135724208Y-112832585D01*
X135486455Y-112665580D01*
X135244144Y-112504620D01*
X135109930Y-112420117D01*
X134951889Y-112317196D01*
X134827788Y-112225244D01*
X134754389Y-112157294D01*
X134741652Y-112133830D01*
X134763475Y-112050906D01*
X134822961Y-111908803D01*
X134911134Y-111724469D01*
X135019019Y-111514857D01*
X135121621Y-111326353D01*
X136402507Y-111326353D01*
X136409558Y-111391676D01*
X136479768Y-111495595D01*
X136532692Y-111558088D01*
X136626053Y-111653274D01*
X136688932Y-111683944D01*
X136733571Y-111665775D01*
X136787004Y-111596188D01*
X136795288Y-111564394D01*
X136816734Y-111484978D01*
X136875456Y-111343490D01*
X136963571Y-111154874D01*
X137073198Y-110934073D01*
X137190759Y-110707032D01*
X149936648Y-110707032D01*
X149942034Y-110768293D01*
X149971973Y-110895737D01*
X150021664Y-111071230D01*
X150086306Y-111276639D01*
X150092089Y-111294150D01*
X150177281Y-111565990D01*
X150265692Y-111872621D01*
X150344794Y-112169482D01*
X150386153Y-112339895D01*
X150433975Y-112546491D01*
X150475837Y-112723434D01*
X150507061Y-112851202D01*
X150522542Y-112909051D01*
X150579917Y-112959562D01*
X150692297Y-112945874D01*
X150853793Y-112869076D01*
X150903651Y-112838556D01*
X151029713Y-112751879D01*
X151129634Y-112671849D01*
X151161752Y-112639632D01*
X151196242Y-112557880D01*
X151172622Y-112497904D01*
X151104042Y-112489472D01*
X151096561Y-112492086D01*
X151056902Y-112497704D01*
X151069637Y-112452501D01*
X151088709Y-112417009D01*
X151113948Y-112369885D01*
X151132416Y-112322748D01*
X151146687Y-112258854D01*
X151159333Y-112161460D01*
X151172927Y-112013822D01*
X151190042Y-111799196D01*
X151196581Y-111714939D01*
X151216344Y-111438269D01*
X151225069Y-111234606D01*
X151220979Y-111088161D01*
X151202297Y-110983141D01*
X151167245Y-110903756D01*
X151114046Y-110834217D01*
X151095145Y-110813821D01*
X150929834Y-110668616D01*
X150757210Y-110584352D01*
X150556785Y-110556286D01*
X150308073Y-110579673D01*
X150186119Y-110603304D01*
X150052901Y-110640780D01*
X149960564Y-110683389D01*
X149936648Y-110707032D01*
X137190759Y-110707032D01*
X137196455Y-110696032D01*
X137325460Y-110455694D01*
X137452330Y-110228005D01*
X137569184Y-110027907D01*
X137668139Y-109870346D01*
X137741314Y-109770264D01*
X137741983Y-109769496D01*
X137795573Y-109698221D01*
X137786147Y-109647928D01*
X137730679Y-109592892D01*
X137617040Y-109532356D01*
X137433719Y-109498793D01*
X137361709Y-109493381D01*
X137091185Y-109507385D01*
X136881980Y-109585333D01*
X136731809Y-109729359D01*
X136638382Y-109941599D01*
X136600327Y-110203823D01*
X136583786Y-110372488D01*
X136555595Y-110518957D01*
X136528726Y-110596172D01*
X136493364Y-110732592D01*
X136491157Y-110942133D01*
X136494043Y-110983042D01*
X136501934Y-111148482D01*
X136490987Y-111243400D01*
X136458989Y-111284995D01*
X136454923Y-111286741D01*
X136402507Y-111326353D01*
X135121621Y-111326353D01*
X135137643Y-111296916D01*
X135258029Y-111087596D01*
X135371203Y-110903848D01*
X135466487Y-110764893D01*
X135606977Y-110576230D01*
X135756701Y-110373798D01*
X135886435Y-110197127D01*
X135902674Y-110174868D01*
X136016777Y-110020878D01*
X136116759Y-109894410D01*
X136221020Y-109774600D01*
X136347960Y-109640584D01*
X136515979Y-109471496D01*
X136571914Y-109415993D01*
X136848388Y-109142690D01*
X137070538Y-108924597D01*
X137246969Y-108753592D01*
X137386282Y-108621552D01*
X137497083Y-108520356D01*
X137587974Y-108441881D01*
X137667560Y-108378006D01*
X137687874Y-108362475D01*
X137820101Y-108260831D01*
X137989731Y-108128383D01*
X138164596Y-107990279D01*
X138201230Y-107961111D01*
X138396062Y-107814142D01*
X138617482Y-107659740D01*
X138820478Y-107529184D01*
X138837346Y-107519052D01*
X138984737Y-107427600D01*
X139096980Y-107351038D01*
X139156137Y-107301877D01*
X139160984Y-107293315D01*
X139198734Y-107264073D01*
X139301068Y-107205322D01*
X139451618Y-107125201D01*
X139634014Y-107031845D01*
X139831886Y-106933391D01*
X140028865Y-106837977D01*
X140208580Y-106753738D01*
X140354663Y-106688812D01*
X140450744Y-106651336D01*
X140455536Y-106649841D01*
X140580319Y-106606605D01*
X140701055Y-106558485D01*
X140829021Y-106512399D01*
X141023502Y-106453331D01*
X141263680Y-106386831D01*
X141528735Y-106318446D01*
X141797846Y-106253725D01*
X142050195Y-106198215D01*
X142062566Y-106195664D01*
X142319792Y-106157867D01*
X142649209Y-106132725D01*
X143034712Y-106119660D01*
X143460199Y-106118095D01*
X143909567Y-106127453D01*
X144366712Y-106147156D01*
X144815530Y-106176627D01*
X145239919Y-106215290D01*
X145623776Y-106262566D01*
X145950996Y-106317879D01*
X146046832Y-106338492D01*
X146427110Y-106433755D01*
X146808595Y-106543414D01*
X147175561Y-106661898D01*
X147512286Y-106783638D01*
X147803045Y-106903063D01*
X148032115Y-107014601D01*
X148140459Y-107080218D01*
X148237588Y-107137306D01*
X148307027Y-107161676D01*
X148307858Y-107161687D01*
X148354622Y-107190570D01*
X148356766Y-107202498D01*
X148391924Y-107245635D01*
X148483324Y-107316659D01*
X148589446Y-107386478D01*
X148733232Y-107480176D01*
X148915732Y-107606405D01*
X149105116Y-107742971D01*
X149171076Y-107792064D01*
X149322352Y-107903899D01*
X149446406Y-107992005D01*
X149526525Y-108044706D01*
X149546733Y-108054482D01*
X149605778Y-108081997D01*
X149712635Y-108154716D01*
X149848951Y-108257898D01*
X149996376Y-108376800D01*
X150136557Y-108496682D01*
X150251145Y-108602802D01*
X150315194Y-108671777D01*
X150393069Y-108762335D01*
X150518790Y-108900018D01*
X150677258Y-109068638D01*
X150853374Y-109252008D01*
X150923626Y-109324069D01*
X151100031Y-109507745D01*
X151261684Y-109682545D01*
X151394340Y-109832598D01*
X151483754Y-109942033D01*
X151504524Y-109971345D01*
X151605351Y-110111318D01*
X151723054Y-110253755D01*
X151745227Y-110278063D01*
X151828478Y-110375271D01*
X151877647Y-110448288D01*
X151883304Y-110465563D01*
X151916542Y-110520849D01*
X151943237Y-110540928D01*
X152006987Y-110601422D01*
X152081641Y-110700719D01*
X152087960Y-110710545D01*
X152166556Y-110825514D01*
X152239006Y-110917814D01*
X152240719Y-110919723D01*
X152290263Y-110992281D01*
X152369437Y-111128163D01*
X152469322Y-111310165D01*
X152580999Y-111521085D01*
X152695550Y-111743717D01*
X152804054Y-111960858D01*
X152897592Y-112155306D01*
X152967245Y-112309855D01*
X152988579Y-112362214D01*
X153044871Y-112507404D01*
X153093146Y-112630023D01*
X153111140Y-112674692D01*
X153144044Y-112756056D01*
X153155716Y-112786292D01*
X153177253Y-112837251D01*
X153222111Y-112939079D01*
X153243572Y-112987170D01*
X153300806Y-113140027D01*
X153370033Y-113364930D01*
X153447425Y-113646062D01*
X153529155Y-113967604D01*
X153611394Y-114313736D01*
X153690314Y-114668639D01*
X153762088Y-115016496D01*
X153822886Y-115341486D01*
X153845176Y-115473177D01*
X153886116Y-115784994D01*
X153916936Y-116143256D01*
X153937435Y-116528952D01*
X153947415Y-116923072D01*
X153946673Y-117306606D01*
X153935012Y-117660544D01*
X153912231Y-117965876D01*
X153878131Y-118203592D01*
X153874083Y-118222947D01*
X153859660Y-118325400D01*
X153847044Y-118475619D01*
X153841902Y-118572191D01*
X153841331Y-118722235D01*
X153861452Y-118815782D01*
X153912080Y-118884950D01*
X153947074Y-118916379D01*
X154057859Y-119031144D01*
X154133912Y-119170147D01*
X154189163Y-119361530D01*
X154204245Y-119435896D01*
X154222347Y-119615715D01*
X154215193Y-119800430D01*
X154186505Y-119963666D01*
X154140004Y-120079045D01*
X154108845Y-120112134D01*
X154025659Y-120137988D01*
X153901543Y-120150869D01*
X153883566Y-120151162D01*
X153765798Y-120165576D01*
X153689019Y-120200154D01*
X153682687Y-120207645D01*
X153674666Y-120263285D01*
X153667119Y-120398289D01*
X153660262Y-120602744D01*
X153654304Y-120866734D01*
X153649460Y-121180346D01*
X153645941Y-121533665D01*
X153643960Y-121916777D01*
X153643712Y-122026714D01*
X153641689Y-122554598D01*
X153637223Y-123004880D01*
X153629944Y-123389210D01*
X153619481Y-123719240D01*
X153605462Y-124006622D01*
X153587517Y-124263008D01*
X153565275Y-124500050D01*
X153564832Y-124504218D01*
X153537282Y-124756384D01*
X153510967Y-124985176D01*
X153488095Y-125172276D01*
X153470871Y-125299365D01*
X153464406Y-125338030D01*
X153418413Y-125603485D01*
X153375790Y-125924333D01*
X153340899Y-126266697D01*
X153333829Y-126352527D01*
X153313784Y-126537919D01*
X153285457Y-126716836D01*
X153263658Y-126816078D01*
X153238791Y-126955914D01*
X153237901Y-127076654D01*
X153241464Y-127095861D01*
X153245171Y-127201682D01*
X153224525Y-127358942D01*
X153185955Y-127542804D01*
X153135889Y-127728430D01*
X153080756Y-127890981D01*
X153026985Y-128005620D01*
X152996542Y-128042174D01*
X152934978Y-128118216D01*
X152873350Y-128245047D01*
X152847740Y-128319073D01*
X152769704Y-128545616D01*
X152687727Y-128703028D01*
X152592793Y-128810103D01*
X152548966Y-128876438D01*
X152485680Y-129009873D01*
X152410661Y-129192467D01*
X152331633Y-129406279D01*
X152313277Y-129459227D01*
X152208999Y-129762321D01*
X152127976Y-129990777D01*
X152065013Y-130154583D01*
X152014918Y-130263726D01*
X151972496Y-130328194D01*
X151932552Y-130357975D01*
X151889892Y-130363056D01*
X151847256Y-130355329D01*
X151723785Y-130330478D01*
X151570494Y-130304999D01*
X151537346Y-130300171D01*
X151421579Y-130273409D01*
X151354434Y-130237647D01*
X151347650Y-130223456D01*
X151351865Y-130191259D01*
X151367689Y-130135445D01*
X151399923Y-130042412D01*
X151453372Y-129898557D01*
X151532836Y-129690277D01*
X151570184Y-129593146D01*
X151606280Y-129494040D01*
X151622918Y-129437879D01*
X151623006Y-129436907D01*
X151643252Y-129384641D01*
X151673873Y-129325308D01*
X151708780Y-129228798D01*
X151711150Y-129175855D01*
X151728720Y-129097807D01*
X151768167Y-129039059D01*
X151811571Y-128948900D01*
X151855687Y-128778631D01*
X151899124Y-128537396D01*
X151940490Y-128234340D01*
X151978394Y-127878608D01*
X152011446Y-127479344D01*
X152016619Y-127405800D01*
X152038259Y-127077681D01*
X152052356Y-126827776D01*
X152058915Y-126645338D01*
X152057941Y-126519620D01*
X152049440Y-126439876D01*
X152033418Y-126395360D01*
X152017140Y-126379034D01*
X151990236Y-126375973D01*
X151961410Y-126406476D01*
X151927369Y-126479933D01*
X151884814Y-126605735D01*
X151830453Y-126793270D01*
X151760988Y-127051930D01*
X151703793Y-127271881D01*
X151638536Y-127522137D01*
X151575674Y-127758378D01*
X151520944Y-127959374D01*
X151480084Y-128103900D01*
X151468532Y-128142355D01*
X151423851Y-128273298D01*
X151353618Y-128464767D01*
X151266387Y-128694782D01*
X151170710Y-128941359D01*
X151075140Y-129182517D01*
X150988231Y-129396274D01*
X150918536Y-129560648D01*
X150904036Y-129593146D01*
X150843537Y-129745402D01*
X150796918Y-129894839D01*
X150790675Y-129921127D01*
X150758329Y-130021998D01*
X150709016Y-130054368D01*
X150662371Y-130049456D01*
X150539263Y-130024233D01*
X150357487Y-129989124D01*
X150146331Y-129949553D01*
X149935082Y-129910947D01*
X149753029Y-129878730D01*
X149635726Y-129859279D01*
X149525558Y-129837896D01*
X149482555Y-129800839D01*
X149485554Y-129719440D01*
X149494824Y-129668411D01*
X149527117Y-129481897D01*
X149567014Y-129229240D01*
X149611337Y-128932922D01*
X149656912Y-128615425D01*
X149700563Y-128299234D01*
X149739113Y-128006829D01*
X149769388Y-127760695D01*
X149786049Y-127606678D01*
X149812278Y-127309168D01*
X149825619Y-127090306D01*
X149825826Y-126940365D01*
X149812656Y-126849613D01*
X149785866Y-126808322D01*
X149765926Y-126803163D01*
X149700619Y-126840044D01*
X149678553Y-126881283D01*
X149599052Y-127160234D01*
X149535676Y-127410309D01*
X149492432Y-127614136D01*
X149473330Y-127754345D01*
X149472759Y-127773180D01*
X149463200Y-127872330D01*
X149439901Y-127918693D01*
X149437051Y-127919156D01*
X149408929Y-127962375D01*
X149370576Y-128087917D01*
X149323588Y-128289613D01*
X149269557Y-128561294D01*
X149265398Y-128583606D01*
X149229867Y-128702220D01*
X149179733Y-128817497D01*
X149134487Y-128912209D01*
X149115244Y-128966890D01*
X149115247Y-128967935D01*
X149100577Y-129020469D01*
X149062664Y-129119936D01*
X149054394Y-129139962D01*
X149005054Y-129270970D01*
X148948630Y-129438938D01*
X148920368Y-129530347D01*
X148861272Y-129712906D01*
X148810473Y-129822070D01*
X148757984Y-129871831D01*
X148693819Y-129876182D01*
X148676350Y-129872228D01*
X148611809Y-129868151D01*
X148551317Y-129898703D01*
X148487983Y-129974037D01*
X148414916Y-130104303D01*
X148325225Y-130299656D01*
X148226422Y-130535053D01*
X148121172Y-130777351D01*
X148002899Y-131026939D01*
X147887249Y-131251878D01*
X147803212Y-131399002D01*
X147710526Y-131555309D01*
X147639598Y-131686535D01*
X147601479Y-131771743D01*
X147597891Y-131788029D01*
X147637539Y-131857821D01*
X147736692Y-131910144D01*
X147865666Y-131931518D01*
X147909444Y-131929510D01*
X148043674Y-131947818D01*
X148121556Y-131992820D01*
X148207294Y-132040388D01*
X148350037Y-132090924D01*
X148515881Y-132132806D01*
X148778339Y-132189386D01*
X149038255Y-132250558D01*
X149277092Y-132311475D01*
X149476314Y-132367290D01*
X149617382Y-132413155D01*
X149665499Y-132433416D01*
X149764180Y-132492649D01*
X149887120Y-132576803D01*
X149917007Y-132598753D01*
X150018478Y-132662592D01*
X150130871Y-132700962D01*
X150284304Y-132721871D01*
X150408044Y-132729343D01*
X150791642Y-132756953D01*
X151177880Y-132803012D01*
X151550250Y-132864184D01*
X151892245Y-132937136D01*
X152187357Y-133018533D01*
X152419078Y-133105040D01*
X152516222Y-133155209D01*
X152941530Y-133429784D01*
X153290742Y-133698715D01*
X153574908Y-133975751D01*
X153805080Y-134274642D01*
X153992308Y-134609135D01*
X154147644Y-134992981D01*
X154245772Y-135307030D01*
X154305401Y-135510901D01*
X154360647Y-135688172D01*
X154404801Y-135817988D01*
X154428678Y-135875581D01*
X154465520Y-135961831D01*
X154472408Y-135998340D01*
X154428925Y-136006416D01*
X154298330Y-136013693D01*
X154080398Y-136020173D01*
X153774909Y-136025858D01*
X153381639Y-136030750D01*
X152900366Y-136034850D01*
X152330868Y-136038162D01*
X151672921Y-136040686D01*
X150926305Y-136042425D01*
X150090796Y-136043381D01*
X149430420Y-136043585D01*
X144388431Y-136043585D01*
X144268014Y-135931986D01*
X144165541Y-135857164D01*
X144073307Y-135820999D01*
X144063878Y-135820387D01*
X143984941Y-135857340D01*
X143929312Y-135931986D01*
X143878464Y-136043585D01*
X142312970Y-136043585D01*
X142189262Y-135925065D01*
X142065554Y-135806546D01*
X141886458Y-135925065D01*
X141707363Y-136043585D01*
X136617478Y-136043585D01*
X135951419Y-136043388D01*
X135310797Y-136042815D01*
X134701209Y-136041889D01*
X134128252Y-136040637D01*
X133597522Y-136039084D01*
X133114616Y-136037254D01*
X132685132Y-136035174D01*
X132314665Y-136032868D01*
X132008814Y-136030362D01*
X131773174Y-136027680D01*
X131613343Y-136024849D01*
X131534917Y-136021892D01*
X131527593Y-136020660D01*
X131545042Y-135966191D01*
X131565941Y-135920220D01*
X131600729Y-135835362D01*
X131648857Y-135700745D01*
X131681538Y-135602261D01*
X131858362Y-135190075D01*
X132112097Y-134799572D01*
X132430648Y-134445395D01*
X132801926Y-134142186D01*
X132983122Y-134026188D01*
X133172164Y-133919481D01*
X139785218Y-133919481D01*
X139796974Y-134023677D01*
X139815700Y-134049678D01*
X139899873Y-134079613D01*
X140030105Y-134072150D01*
X140173905Y-134032325D01*
X140281536Y-133977464D01*
X140404596Y-133865232D01*
X140419643Y-133824354D01*
X140970888Y-133824354D01*
X141070330Y-133890381D01*
X141149463Y-133983447D01*
X141169772Y-134063996D01*
X141204075Y-134245565D01*
X141310540Y-134436801D01*
X141494502Y-134646578D01*
X141554763Y-134704394D01*
X141825602Y-134954818D01*
X142039229Y-135146679D01*
X142201746Y-135284360D01*
X142319257Y-135372240D01*
X142397865Y-135414702D01*
X142443674Y-135416127D01*
X142462786Y-135380896D01*
X142464324Y-135357344D01*
X142482455Y-135277574D01*
X142527535Y-135156820D01*
X142585596Y-135026448D01*
X142642668Y-134917827D01*
X142684765Y-134862337D01*
X142763949Y-134855176D01*
X142839482Y-134898601D01*
X142866081Y-134956259D01*
X142889229Y-135038808D01*
X142943654Y-135136634D01*
X143006829Y-135214907D01*
X143049645Y-135240070D01*
X143102659Y-135212345D01*
X143195503Y-135141359D01*
X143261960Y-135083831D01*
X143368702Y-134995034D01*
X143452985Y-134938432D01*
X143482279Y-134927592D01*
X143529633Y-134964343D01*
X143565966Y-135043599D01*
X143573208Y-135118862D01*
X143563853Y-135137495D01*
X143565658Y-135189321D01*
X143602433Y-135283895D01*
X143609917Y-135298790D01*
X143680597Y-135435470D01*
X143748952Y-135305010D01*
X143810121Y-135210088D01*
X143911680Y-135074195D01*
X144034367Y-134922793D01*
X144067848Y-134883451D01*
X144252852Y-134659873D01*
X144382986Y-134478737D01*
X144468787Y-134321718D01*
X144520789Y-134170487D01*
X144542891Y-134057118D01*
X144575599Y-133917027D01*
X144621777Y-133811282D01*
X144647249Y-133781241D01*
X144682668Y-133742286D01*
X144672064Y-133693540D01*
X144610347Y-133617730D01*
X145175426Y-133617730D01*
X145184630Y-133648214D01*
X145230368Y-133729440D01*
X145294122Y-133739396D01*
X145324812Y-133729744D01*
X145334183Y-133722519D01*
X145517456Y-133722519D01*
X145520406Y-133764147D01*
X145589611Y-133804145D01*
X145693828Y-133806500D01*
X145787420Y-133771865D01*
X145801285Y-133760121D01*
X145824869Y-133684427D01*
X145794212Y-133599266D01*
X145727889Y-133546833D01*
X145706051Y-133543761D01*
X145631205Y-133574337D01*
X145559314Y-133644638D01*
X145517456Y-133722519D01*
X145334183Y-133722519D01*
X145408431Y-133665275D01*
X145477507Y-133558793D01*
X145478780Y-133555809D01*
X145515099Y-133440855D01*
X145493307Y-133382995D01*
X145405366Y-133365408D01*
X145387704Y-133365202D01*
X145262442Y-133401761D01*
X145185583Y-133494438D01*
X145175426Y-133617730D01*
X144610347Y-133617730D01*
X144607213Y-133613881D01*
X144564624Y-133569027D01*
X144443174Y-133463316D01*
X144351259Y-133431668D01*
X144327641Y-133435828D01*
X144234352Y-133434864D01*
X144111818Y-133398509D01*
X144089894Y-133388721D01*
X143815123Y-133292901D01*
X143480516Y-133230317D01*
X143108935Y-133200563D01*
X142723242Y-133203230D01*
X142346298Y-133237910D01*
X142000966Y-133304196D01*
X141710107Y-133401679D01*
X141645767Y-133432321D01*
X141476226Y-133502539D01*
X141347550Y-133521097D01*
X141327134Y-133517734D01*
X141248448Y-133517395D01*
X141171790Y-133570216D01*
X141097654Y-133658155D01*
X140970888Y-133824354D01*
X140419643Y-133824354D01*
X140445497Y-133754119D01*
X140402413Y-133652676D01*
X140358864Y-133615031D01*
X140213093Y-133550968D01*
X140070479Y-133571323D01*
X139924581Y-133673270D01*
X139830383Y-133793587D01*
X139785218Y-133919481D01*
X133172164Y-133919481D01*
X133193331Y-133907533D01*
X133390362Y-133809751D01*
G37*
G36*
X143043584Y-133574427D02*
G01*
X143143913Y-133628709D01*
X143178559Y-133699039D01*
X143138490Y-133782118D01*
X143035043Y-133847501D01*
X142893362Y-133889117D01*
X142738589Y-133900893D01*
X142595866Y-133876758D01*
X142542443Y-133852663D01*
X142472693Y-133772771D01*
X142476358Y-133678837D01*
X142549301Y-133601048D01*
X142578829Y-133587296D01*
X142737876Y-133549404D01*
X142900517Y-133546553D01*
X143043584Y-133574427D01*
G37*
%TD*%
D10*
%TO.P,D6,1,K*%
%TO.N,GNDREF*%
X138950000Y-96950000D03*
%TO.P,D6,2,A*%
%TO.N,Net-(D6-Pad2)*%
X141000000Y-96950000D03*
%TD*%
D11*
%TO.P,D5,1,K*%
%TO.N,Net-(D5-Pad1)*%
X110750000Y-95000000D03*
%TO.P,D5,2,A*%
%TO.N,+3V0*%
X108700000Y-95000000D03*
%TD*%
%TO.P,D1,1,K*%
%TO.N,Net-(D1-Pad1)*%
X121500000Y-123075000D03*
%TO.P,D1,2,A*%
%TO.N,+3V0*%
X119450000Y-123075000D03*
%TD*%
D12*
%TO.P,Push me~,1,1*%
%TO.N,Net-(BT1-Pad2)*%
X186150000Y-123000000D03*
X179850000Y-123000000D03*
%TO.P,Push me~,2,2*%
%TO.N,GNDREF*%
X179850000Y-126800000D03*
X186150000Y-126800000D03*
%TD*%
D10*
%TO.P,D3,1,K*%
%TO.N,Net-(D3-Pad1)*%
X168975000Y-96500000D03*
%TO.P,D3,2,A*%
%TO.N,+3V0*%
X171025000Y-96500000D03*
%TD*%
%TO.P,D2,1,K*%
%TO.N,GNDREF*%
X113700000Y-109200000D03*
%TO.P,D2,2,A*%
%TO.N,Net-(D2-Pad2)*%
X115750000Y-109200000D03*
%TD*%
D11*
%TO.P,D4,1,K*%
%TO.N,GNDREF*%
X182000000Y-107000000D03*
%TO.P,D4,2,A*%
%TO.N,Net-(D4-Pad2)*%
X179950000Y-107000000D03*
%TD*%
D13*
%TO.N,+3V0*%
X118450000Y-122050000D03*
X172000000Y-97500000D03*
X108000000Y-85000000D03*
X180000000Y-85000000D03*
X186000000Y-85000000D03*
X102000000Y-85000000D03*
X105000000Y-85000000D03*
X107725000Y-93850000D03*
X183000000Y-85000000D03*
%TO.N,GNDREF*%
X186000000Y-133000000D03*
X180000000Y-133000000D03*
X108000000Y-133000000D03*
X183000000Y-133000000D03*
X182950000Y-105950000D03*
X105000000Y-133000000D03*
X112725000Y-110250000D03*
X102000000Y-133000000D03*
X137925000Y-98000000D03*
X183000000Y-126800000D03*
%TO.N,Net-(D1-Pad1)*%
X122500000Y-122000000D03*
%TO.N,Net-(D2-Pad2)*%
X116750000Y-110250000D03*
%TO.N,Net-(D3-Pad1)*%
X168000000Y-97455646D03*
%TO.N,Net-(D4-Pad2)*%
X178950000Y-105950000D03*
%TO.N,Net-(D5-Pad1)*%
X111750000Y-93900000D03*
%TO.N,Net-(D6-Pad2)*%
X142000000Y-98000000D03*
%TO.N,Net-(BT1-Pad2)*%
X183000000Y-123000000D03*
%TD*%
D14*
%TO.N,+3V0*%
X119450000Y-123050000D02*
X118450000Y-122050000D01*
X172000000Y-97475000D02*
X171025000Y-96500000D01*
X107725000Y-93850000D02*
X108700000Y-94825000D01*
D15*
%TO.N,GNDREF*%
X183000000Y-126800000D02*
X179850000Y-126800000D01*
X183000000Y-126800000D02*
X186150000Y-126800000D01*
D14*
X113700000Y-109275000D02*
X112725000Y-110250000D01*
X182000000Y-106900000D02*
X182950000Y-105950000D01*
X138950000Y-96975000D02*
X137925000Y-98000000D01*
%TO.N,Net-(D1-Pad1)*%
X121500000Y-123000000D02*
X122500000Y-122000000D01*
%TO.N,Net-(D2-Pad2)*%
X115750000Y-109250000D02*
X116750000Y-110250000D01*
%TO.N,Net-(D3-Pad1)*%
X168923023Y-96500000D02*
X168000000Y-97423023D01*
%TO.N,Net-(D4-Pad2)*%
X179950000Y-106950000D02*
X178950000Y-105950000D01*
%TO.N,Net-(D5-Pad1)*%
X110750000Y-94900000D02*
X111750000Y-93900000D01*
%TO.N,Net-(D6-Pad2)*%
X141000000Y-97000000D02*
X142000000Y-98000000D01*
D15*
%TO.N,Net-(BT1-Pad2)*%
X183000000Y-123000000D02*
X186150000Y-123000000D01*
X183000000Y-123000000D02*
X179850000Y-123000000D01*
%TD*%
%TA.AperFunction,Conductor*%
%TO.N,+3V0*%
G36*
X185970018Y-82510000D02*
G01*
X185984851Y-82512310D01*
X185984855Y-82512310D01*
X185993724Y-82513691D01*
X186010923Y-82511442D01*
X186034863Y-82510609D01*
X186292710Y-82526206D01*
X186307814Y-82528040D01*
X186379786Y-82541229D01*
X186588760Y-82579525D01*
X186603526Y-82583164D01*
X186876231Y-82668142D01*
X186890445Y-82673534D01*
X187108223Y-82771547D01*
X187150906Y-82790757D01*
X187164379Y-82797828D01*
X187408813Y-82945595D01*
X187421334Y-82954238D01*
X187646171Y-83130385D01*
X187657560Y-83140475D01*
X187859525Y-83342440D01*
X187869615Y-83353829D01*
X188045762Y-83578666D01*
X188054405Y-83591187D01*
X188202172Y-83835621D01*
X188209242Y-83849092D01*
X188326466Y-84109555D01*
X188331859Y-84123773D01*
X188416836Y-84396473D01*
X188420477Y-84411246D01*
X188471960Y-84692186D01*
X188473794Y-84707290D01*
X188488953Y-84957904D01*
X188487692Y-84984716D01*
X188487690Y-84984852D01*
X188486309Y-84993724D01*
X188487473Y-85002626D01*
X188487473Y-85002628D01*
X188490436Y-85025283D01*
X188491500Y-85041621D01*
X188491500Y-85874000D01*
X188471498Y-85942121D01*
X188417842Y-85988614D01*
X188365500Y-86000000D01*
X99634500Y-86000000D01*
X99566379Y-85979998D01*
X99519886Y-85926342D01*
X99508500Y-85874000D01*
X99508500Y-85053250D01*
X99510246Y-85032345D01*
X99512770Y-85017344D01*
X99512770Y-85017341D01*
X99513576Y-85012552D01*
X99513729Y-85000000D01*
X99513040Y-84995186D01*
X99513039Y-84995177D01*
X99511869Y-84987006D01*
X99510827Y-84961540D01*
X99526206Y-84707290D01*
X99528040Y-84692186D01*
X99579523Y-84411246D01*
X99583164Y-84396473D01*
X99668141Y-84123773D01*
X99673534Y-84109555D01*
X99790758Y-83849092D01*
X99797828Y-83835621D01*
X99945595Y-83591187D01*
X99954238Y-83578666D01*
X100130385Y-83353829D01*
X100140475Y-83342440D01*
X100342440Y-83140475D01*
X100353829Y-83130385D01*
X100578666Y-82954238D01*
X100591187Y-82945595D01*
X100835621Y-82797828D01*
X100849094Y-82790757D01*
X100891777Y-82771547D01*
X101109555Y-82673534D01*
X101123769Y-82668142D01*
X101396474Y-82583164D01*
X101411240Y-82579525D01*
X101620214Y-82541229D01*
X101692186Y-82528040D01*
X101707290Y-82526206D01*
X101957904Y-82511047D01*
X101984716Y-82512308D01*
X101984852Y-82512310D01*
X101993724Y-82513691D01*
X102002626Y-82512527D01*
X102002628Y-82512527D01*
X102017677Y-82510559D01*
X102025286Y-82509564D01*
X102041621Y-82508500D01*
X185950633Y-82508500D01*
X185970018Y-82510000D01*
G37*
%TD.AperFunction*%
%TD*%
%TA.AperFunction,Conductor*%
%TO.N,GNDREF*%
G36*
X188433563Y-132020853D02*
G01*
X188480085Y-132074483D01*
X188491500Y-132126888D01*
X188491500Y-132950633D01*
X188490000Y-132970018D01*
X188487690Y-132984851D01*
X188487690Y-132984855D01*
X188486309Y-132993724D01*
X188488547Y-133010837D01*
X188488558Y-133010919D01*
X188489391Y-133034863D01*
X188473794Y-133292710D01*
X188471960Y-133307814D01*
X188465272Y-133344308D01*
X188422710Y-133576570D01*
X188420477Y-133588754D01*
X188416836Y-133603526D01*
X188337162Y-133859210D01*
X188331859Y-133876227D01*
X188326466Y-133890445D01*
X188211254Y-134146437D01*
X188209243Y-134150906D01*
X188202173Y-134164378D01*
X188183285Y-134195622D01*
X188054405Y-134408813D01*
X188045762Y-134421334D01*
X187869615Y-134646171D01*
X187859525Y-134657560D01*
X187657560Y-134859525D01*
X187646171Y-134869615D01*
X187421334Y-135045762D01*
X187408813Y-135054405D01*
X187277883Y-135133556D01*
X187179244Y-135193186D01*
X187164379Y-135202172D01*
X187150908Y-135209242D01*
X186890445Y-135326466D01*
X186876231Y-135331858D01*
X186613876Y-135413611D01*
X186603527Y-135416836D01*
X186588760Y-135420475D01*
X186391480Y-135456628D01*
X186307814Y-135471960D01*
X186292710Y-135473794D01*
X186042096Y-135488953D01*
X186015284Y-135487692D01*
X186015148Y-135487690D01*
X186006276Y-135486309D01*
X185997374Y-135487473D01*
X185997372Y-135487473D01*
X185982707Y-135489391D01*
X185974714Y-135490436D01*
X185958379Y-135491500D01*
X154924686Y-135491500D01*
X154856565Y-135471498D01*
X154810072Y-135417842D01*
X154804392Y-135402989D01*
X154792534Y-135364939D01*
X154791894Y-135362821D01*
X154744626Y-135201210D01*
X154743498Y-135196881D01*
X154742945Y-135193186D01*
X154741497Y-135188553D01*
X154741496Y-135188547D01*
X154732866Y-135160928D01*
X154732199Y-135158721D01*
X154724839Y-135133556D01*
X154724834Y-135133542D01*
X154723575Y-135129238D01*
X154722028Y-135125835D01*
X154720542Y-135121485D01*
X154640058Y-134863904D01*
X154637645Y-134855062D01*
X154634982Y-134843692D01*
X154634978Y-134843679D01*
X154633870Y-134838949D01*
X154628733Y-134826254D01*
X154625275Y-134816592D01*
X154622113Y-134806474D01*
X154620186Y-134802434D01*
X154620183Y-134802427D01*
X154614623Y-134790773D01*
X154611545Y-134783785D01*
X154560464Y-134657560D01*
X154467617Y-134428129D01*
X154466319Y-134424781D01*
X154457076Y-134399910D01*
X154457075Y-134399908D01*
X154455376Y-134395336D01*
X154452992Y-134391078D01*
X154452824Y-134390714D01*
X154451300Y-134387808D01*
X154449976Y-134384535D01*
X154447723Y-134380661D01*
X154447719Y-134380653D01*
X154433305Y-134355869D01*
X154432276Y-134354066D01*
X154346401Y-134200647D01*
X154252368Y-134032652D01*
X154252011Y-134032008D01*
X154232133Y-133995774D01*
X154229171Y-133991927D01*
X154229166Y-133991920D01*
X154215194Y-133973777D01*
X154214912Y-133973408D01*
X154166474Y-133910024D01*
X154166470Y-133910019D01*
X154164919Y-133907990D01*
X154164203Y-133907464D01*
X154163621Y-133906807D01*
X154156550Y-133897625D01*
X153982113Y-133671108D01*
X153981264Y-133669993D01*
X153958240Y-133639302D01*
X153955749Y-133636874D01*
X153955513Y-133636567D01*
X153877600Y-133560666D01*
X153877584Y-133560658D01*
X153877491Y-133560579D01*
X153655094Y-133343762D01*
X153651770Y-133340396D01*
X153632388Y-133320007D01*
X153628529Y-133317035D01*
X153628061Y-133316613D01*
X153625283Y-133314372D01*
X153622768Y-133312247D01*
X153619564Y-133309124D01*
X153595890Y-133291846D01*
X153593293Y-133289898D01*
X153270218Y-133041096D01*
X153263283Y-133035350D01*
X153254246Y-133027299D01*
X153254243Y-133027297D01*
X153250612Y-133024062D01*
X153239446Y-133016853D01*
X153230925Y-133010837D01*
X153226407Y-133007358D01*
X153222861Y-133004627D01*
X153207353Y-132995870D01*
X153200963Y-132992009D01*
X153170552Y-132972376D01*
X152808042Y-132738344D01*
X152802035Y-132734214D01*
X152792754Y-132727430D01*
X152784750Y-132721580D01*
X152776786Y-132717467D01*
X152766275Y-132711378D01*
X152765116Y-132710630D01*
X152765104Y-132710623D01*
X152761347Y-132708198D01*
X152757282Y-132706328D01*
X152757279Y-132706327D01*
X152741060Y-132698868D01*
X152735891Y-132696347D01*
X152733202Y-132694959D01*
X152663292Y-132658854D01*
X152659460Y-132656790D01*
X152634036Y-132642509D01*
X152629474Y-132640806D01*
X152629018Y-132640594D01*
X152624869Y-132638930D01*
X152623946Y-132638534D01*
X152619967Y-132636479D01*
X152615736Y-132635009D01*
X152615732Y-132635007D01*
X152591182Y-132626476D01*
X152588474Y-132625500D01*
X152385491Y-132549721D01*
X152377769Y-132546543D01*
X152365187Y-132540870D01*
X152365181Y-132540868D01*
X152360750Y-132538870D01*
X152356068Y-132537579D01*
X152356058Y-132537575D01*
X152349539Y-132535777D01*
X152338984Y-132532359D01*
X152335197Y-132530945D01*
X152335192Y-132530944D01*
X152330996Y-132529377D01*
X152311896Y-132525205D01*
X152305288Y-132523573D01*
X152057089Y-132455115D01*
X152045664Y-132451369D01*
X152041619Y-132449825D01*
X152041615Y-132449824D01*
X152037070Y-132448089D01*
X152016627Y-132443728D01*
X152009421Y-132441967D01*
X151996573Y-132438424D01*
X151992251Y-132437232D01*
X151986417Y-132436488D01*
X151982344Y-132435968D01*
X151972001Y-132434209D01*
X151689967Y-132374047D01*
X151676947Y-132370531D01*
X151671770Y-132368831D01*
X151666968Y-132368042D01*
X151666959Y-132368040D01*
X151647487Y-132364842D01*
X151641666Y-132363744D01*
X151620623Y-132359255D01*
X151614392Y-132358831D01*
X151602533Y-132357456D01*
X151295247Y-132306976D01*
X151283203Y-132304309D01*
X151282115Y-132304093D01*
X151277428Y-132302780D01*
X151272607Y-132302205D01*
X151272601Y-132302204D01*
X151255643Y-132300182D01*
X151251970Y-132299744D01*
X151246477Y-132298966D01*
X151224280Y-132295319D01*
X151219316Y-132295217D01*
X151219083Y-132295212D01*
X151206761Y-132294353D01*
X151021738Y-132272289D01*
X150956465Y-132244361D01*
X150916653Y-132185578D01*
X150914941Y-132114602D01*
X150951874Y-132053967D01*
X151015725Y-132022926D01*
X151036587Y-132021175D01*
X176453902Y-132007362D01*
X188365432Y-132000888D01*
X188433563Y-132020853D01*
G37*
%TD.AperFunction*%
%TA.AperFunction,Conductor*%
G36*
X136031070Y-132049332D02*
G01*
X136063407Y-132079237D01*
X136073888Y-132093060D01*
X136099107Y-132159424D01*
X136084443Y-132228890D01*
X136034552Y-132279400D01*
X136016775Y-132286864D01*
X136016951Y-132287323D01*
X135994016Y-132296120D01*
X135988387Y-132298127D01*
X135972288Y-132303441D01*
X135972281Y-132303444D01*
X135968021Y-132304850D01*
X135964001Y-132306847D01*
X135962387Y-132307648D01*
X135951468Y-132312440D01*
X135834590Y-132357272D01*
X135826627Y-132360025D01*
X135808977Y-132365473D01*
X135798374Y-132370646D01*
X135788252Y-132375046D01*
X135785904Y-132375947D01*
X135784304Y-132376560D01*
X135784300Y-132376562D01*
X135780120Y-132378165D01*
X135763219Y-132387586D01*
X135757116Y-132390772D01*
X135713556Y-132412022D01*
X135658110Y-132439069D01*
X135654351Y-132440827D01*
X135627217Y-132452956D01*
X135623121Y-132455609D01*
X135622730Y-132455822D01*
X135618664Y-132458313D01*
X135614672Y-132460260D01*
X135610968Y-132462773D01*
X135588905Y-132477741D01*
X135586698Y-132479204D01*
X135503043Y-132533395D01*
X135498188Y-132536386D01*
X135476135Y-132549287D01*
X135472249Y-132552454D01*
X135466851Y-132556383D01*
X135466890Y-132556435D01*
X135463314Y-132559131D01*
X135459548Y-132561571D01*
X135456165Y-132564521D01*
X135439482Y-132579067D01*
X135436273Y-132581772D01*
X135347148Y-132654402D01*
X135346717Y-132654752D01*
X135333712Y-132665255D01*
X135320480Y-132674603D01*
X135318490Y-132675825D01*
X135269067Y-132692224D01*
X135268876Y-132692214D01*
X135260145Y-132694280D01*
X135260142Y-132694280D01*
X135214893Y-132704986D01*
X135207870Y-132706438D01*
X135194816Y-132708751D01*
X135194811Y-132708752D01*
X135190405Y-132709533D01*
X135186154Y-132710930D01*
X135186152Y-132710931D01*
X135184793Y-132711378D01*
X135181984Y-132712301D01*
X135171644Y-132715218D01*
X135164700Y-132716861D01*
X135164695Y-132716863D01*
X135159964Y-132717982D01*
X135144148Y-132724424D01*
X135135976Y-132727427D01*
X135087073Y-132743505D01*
X135079675Y-132748589D01*
X135071630Y-132752574D01*
X135071551Y-132752415D01*
X135059583Y-132758868D01*
X135029858Y-132770974D01*
X135019245Y-132774752D01*
X135008610Y-132778010D01*
X135004231Y-132780134D01*
X135004222Y-132780138D01*
X134991507Y-132786307D01*
X134984042Y-132789634D01*
X134970865Y-132795002D01*
X134969309Y-132795636D01*
X134969099Y-132795759D01*
X134962037Y-132798785D01*
X134907556Y-132818784D01*
X134901554Y-132820817D01*
X134754468Y-132866559D01*
X134751396Y-132867472D01*
X134553307Y-132923573D01*
X134550946Y-132924216D01*
X134330678Y-132981850D01*
X134324320Y-132983502D01*
X134323375Y-132983743D01*
X134294322Y-132991050D01*
X134294296Y-132991058D01*
X134290235Y-132992079D01*
X134288744Y-132992689D01*
X134287239Y-132993131D01*
X134254220Y-133001707D01*
X134013988Y-133064097D01*
X134007861Y-133065526D01*
X134005533Y-133066008D01*
X134000714Y-133066623D01*
X133996053Y-133067970D01*
X133996040Y-133067973D01*
X133970955Y-133075224D01*
X133967645Y-133076132D01*
X133945042Y-133082003D01*
X133945034Y-133082006D01*
X133940709Y-133083129D01*
X133936585Y-133084855D01*
X133932850Y-133086114D01*
X133927583Y-133087763D01*
X133717483Y-133148498D01*
X133704275Y-133151557D01*
X133699088Y-133152467D01*
X133675638Y-133160452D01*
X133670031Y-133162215D01*
X133653501Y-133166993D01*
X133653491Y-133166997D01*
X133649193Y-133168239D01*
X133643670Y-133170729D01*
X133632493Y-133175141D01*
X133457966Y-133234564D01*
X133447090Y-133237729D01*
X133436444Y-133240312D01*
X133431945Y-133242175D01*
X133431941Y-133242176D01*
X133418713Y-133247653D01*
X133411128Y-133250511D01*
X133400150Y-133254249D01*
X133395903Y-133255695D01*
X133391904Y-133257728D01*
X133391905Y-133257728D01*
X133385438Y-133261016D01*
X133376529Y-133265118D01*
X133221593Y-133329265D01*
X133211379Y-133332986D01*
X133199796Y-133336648D01*
X133195440Y-133338810D01*
X133195432Y-133338813D01*
X133183673Y-133344649D01*
X133175879Y-133348192D01*
X133162107Y-133353894D01*
X133158255Y-133356176D01*
X133158247Y-133356180D01*
X133150959Y-133360498D01*
X133142749Y-133364960D01*
X132996440Y-133437569D01*
X132984749Y-133442651D01*
X132982427Y-133443523D01*
X132982418Y-133443527D01*
X132977870Y-133445236D01*
X132958052Y-133456422D01*
X132952181Y-133459534D01*
X132934574Y-133468272D01*
X132934016Y-133468656D01*
X132926850Y-133472381D01*
X132895382Y-133486689D01*
X132887705Y-133493303D01*
X132887636Y-133493363D01*
X132867332Y-133507630D01*
X132760871Y-133567724D01*
X132749735Y-133573303D01*
X132746773Y-133574608D01*
X132746767Y-133574611D01*
X132742321Y-133576570D01*
X132723793Y-133588432D01*
X132717817Y-133592027D01*
X132705271Y-133599108D01*
X132705267Y-133599111D01*
X132701367Y-133601312D01*
X132697815Y-133604047D01*
X132694328Y-133606732D01*
X132685397Y-133613012D01*
X132572478Y-133685300D01*
X132539084Y-133706678D01*
X132534884Y-133709252D01*
X132515173Y-133720810D01*
X132515168Y-133720813D01*
X132510965Y-133723278D01*
X132507188Y-133726363D01*
X132506634Y-133726748D01*
X132504089Y-133728734D01*
X132500792Y-133731191D01*
X132497011Y-133733612D01*
X132493612Y-133736544D01*
X132475121Y-133752492D01*
X132472538Y-133754660D01*
X132353259Y-133852071D01*
X132140721Y-134025642D01*
X132140626Y-134025720D01*
X132079063Y-134075896D01*
X132075800Y-134079524D01*
X132057453Y-134099922D01*
X132056502Y-134100968D01*
X132011600Y-134149778D01*
X132011596Y-134149783D01*
X132007081Y-134154691D01*
X132005983Y-134156912D01*
X132004484Y-134158815D01*
X131782761Y-134405334D01*
X131782386Y-134405696D01*
X131781977Y-134405950D01*
X131718990Y-134476239D01*
X131709604Y-134486674D01*
X131709502Y-134486826D01*
X131707286Y-134489299D01*
X131704638Y-134493374D01*
X131704636Y-134493377D01*
X131689726Y-134516325D01*
X131688751Y-134517803D01*
X131657468Y-134564500D01*
X131649065Y-134577043D01*
X131648143Y-134579963D01*
X131646656Y-134582609D01*
X131470913Y-134853080D01*
X131468754Y-134855985D01*
X131466088Y-134858355D01*
X131461326Y-134865956D01*
X131428910Y-134917692D01*
X131427792Y-134919444D01*
X131412073Y-134943636D01*
X131410739Y-134946514D01*
X131409385Y-134948813D01*
X131409251Y-134949068D01*
X131406665Y-134953196D01*
X131404745Y-134957672D01*
X131395188Y-134979950D01*
X131393714Y-134983254D01*
X131366338Y-135042326D01*
X131365439Y-135048297D01*
X131363068Y-135054823D01*
X131305702Y-135188547D01*
X131223168Y-135380938D01*
X131219432Y-135388872D01*
X131213618Y-135400180D01*
X131213613Y-135400191D01*
X131211393Y-135404510D01*
X131209860Y-135409129D01*
X131207978Y-135413611D01*
X131205938Y-135412754D01*
X131170686Y-135463574D01*
X131105105Y-135490772D01*
X131091582Y-135491500D01*
X102049367Y-135491500D01*
X102029982Y-135490000D01*
X102015149Y-135487690D01*
X102015145Y-135487690D01*
X102006276Y-135486309D01*
X101989077Y-135488558D01*
X101965137Y-135489391D01*
X101707290Y-135473794D01*
X101692186Y-135471960D01*
X101608520Y-135456628D01*
X101411240Y-135420475D01*
X101396473Y-135416836D01*
X101386124Y-135413611D01*
X101123769Y-135331858D01*
X101109555Y-135326466D01*
X100849092Y-135209242D01*
X100835621Y-135202172D01*
X100820757Y-135193186D01*
X100722117Y-135133556D01*
X100591187Y-135054405D01*
X100578666Y-135045762D01*
X100353829Y-134869615D01*
X100342440Y-134859525D01*
X100140475Y-134657560D01*
X100130385Y-134646171D01*
X99954238Y-134421334D01*
X99945595Y-134408813D01*
X99816715Y-134195622D01*
X99797827Y-134164378D01*
X99790757Y-134150906D01*
X99788746Y-134146437D01*
X99673534Y-133890445D01*
X99668141Y-133876227D01*
X99662839Y-133859210D01*
X99583164Y-133603526D01*
X99579523Y-133588754D01*
X99577291Y-133576570D01*
X99534728Y-133344308D01*
X99528040Y-133307814D01*
X99526206Y-133292710D01*
X99511269Y-133045768D01*
X99512520Y-133022216D01*
X99512334Y-133022199D01*
X99512769Y-133017350D01*
X99513576Y-133012552D01*
X99513729Y-133000000D01*
X99509773Y-132972376D01*
X99508500Y-132954514D01*
X99508500Y-132175112D01*
X99528502Y-132106991D01*
X99582158Y-132060498D01*
X99634432Y-132049112D01*
X122622975Y-132036617D01*
X135962941Y-132029367D01*
X136031070Y-132049332D01*
G37*
%TD.AperFunction*%
%TD*%
M02*
